<?xml version="1.0" encoding="iso-8859-1"?>
<!-- Generator: Adobe Illustrator 19.0.0, SVG Export Plug-In . SVG Version: 6.00 Build 0)  -->
<svg version="1.1" id="Capa_1" xmlns="http://www.w3.org/2000/svg" xmlns:xlink="http://www.w3.org/1999/xlink" x="0px" y="0px"
	 viewBox="0 0 512 512" style="enable-background:new 0 0 512 512;" xml:space="preserve">
<g>
	<path style="fill:#00AA95;" d="M239.616,358.879c0,50.015-32.232,92.517-77.076,107.837c-14.749,5.054-26.498,6.114-41.042,6.114
		c-62.932,0-113.941-51.029-113.941-113.951c0-51.85,83.038-206.864,112.288-259.85c0.01-0.02,0.02-0.051,0.041-0.071
		c1.602-2.92,5.789-2.92,7.401,0c0.01,0.02,0.02,0.051,0.041,0.071c3.386,6.134,7.493,13.637,12.106,22.184
		C174.686,186.518,239.616,313.031,239.616,358.879z"/>
	<path style="fill:#00AA95;" d="M419.206,178.934c0,30.001-18.027,55.794-43.851,67.119c-8.993,3.954-18.939,6.144-29.403,6.144
		c-0.456,0-0.892-0.01-1.338-0.02c-0.456,0.01-0.892,0.02-1.338,0.02c-40.464,0-73.264-32.809-73.264-73.264
		c0-33.337,53.391-133.002,72.189-167.069c0.01-0.01,0.02-0.03,0.03-0.041c1.034-1.876,3.721-1.876,4.755,0
		c0.01,0.01,0.02,0.03,0.03,0.041c3.488,6.317,8.162,14.894,13.475,24.881C383.791,80.627,419.206,151.782,419.206,178.934z"/>
	<path style="fill:#00AA95;" d="M504.342,459.285c0,15.969-8.314,30.001-20.856,38.001c-6.976,4.441-15.259,7.016-24.151,7.016
		c-0.284,0-0.548-0.01-0.831-0.01c-0.274,0-0.537,0.01-0.821,0.01c-24.861,0-45.017-20.156-45.017-45.017
		c0-20.481,32.809-81.719,44.368-102.656c0-0.01,0.01-0.02,0.01-0.03c0.639-1.146,2.291-1.146,2.93,0c0,0.01,0.01,0.02,0.01,0.03
		c3.427,6.205,8.709,15.949,14.458,27.111C488.1,410.273,504.342,444.867,504.342,459.285z"/>
</g>
<g>
	<path style="fill:#00CCB3;" d="M239.616,358.879c0,50.015-32.232,92.517-77.076,107.837c-0.629,0.02-1.257,0.03-1.896,0.03
		c-0.7,0-1.389-0.01-2.089-0.02c-0.689,0.01-1.379,0.02-2.078,0.02c-62.932,0-113.951-51.029-113.951-113.951
		c0-44.459,61.067-164.787,96.908-231.583C174.686,186.518,239.616,313.031,239.616,358.879z"/>
	<path style="fill:#00CCB3;" d="M419.206,178.934c0,30.001-18.027,55.794-43.851,67.119c-39.116-1.511-70.364-33.722-70.364-73.203
		c0-25.935,32.303-92,55.5-136.105C383.791,80.627,419.206,151.782,419.206,178.934z"/>
	<path style="fill:#00CCB3;" d="M504.342,459.285c0,15.969-8.314,30.001-20.856,38.001c-20.46-4.238-35.841-22.366-35.841-44.084
		c0-13.333,13.911-43.942,26.797-69.462C488.1,410.273,504.342,444.867,504.342,459.285z"/>
</g>
<g>
	<circle style="fill:#44FFE8;" cx="169.816" cy="321.9" r="28.389"/>
	<circle style="fill:#44FFE8;" cx="367.525" cy="142.441" r="21.292"/>
	<circle style="fill:#44FFE8;" cx="457.933" cy="453.371" r="14.194"/>
</g>
<path d="M169.87,357.982c35.725,0,49.633-46.843,19.467-66.271c-3.53-2.274-8.237-1.255-10.51,2.276s-1.254,8.237,2.276,10.511
	c17.424,11.222,9.404,38.276-11.233,38.276c-21.411,0-28.815-28.719-9.956-39.035c3.684-2.016,5.037-6.636,3.021-10.321
	c-2.016-3.684-6.635-5.038-10.321-3.021c-11.557,6.323-18.737,18.428-18.737,31.593C133.877,341.836,150.023,357.982,169.87,357.982
	z"/>
<path d="M396.346,139.795c-2.484-26.365-35.669-35.206-51.477-15.131c-2.599,3.299-2.031,8.081,1.268,10.679
	c3.298,2.599,8.081,2.03,10.678-1.268c7.601-9.651,23.227-5.184,24.39,7.148l0.062,1.31c0,12.36-15.128,18.321-23.595,9.444
	c-2.898-3.039-7.712-3.151-10.751-0.253c-3.039,2.899-3.152,7.712-0.253,10.751c17.849,18.712,49.808,6.195,49.808-19.941
	L396.346,139.795z"/>
<path d="M458.559,461.825c-4.813,0-7.975-5.004-5.999-9.326c1.747-3.819,0.067-8.331-3.751-10.078
	c-3.82-1.745-8.331-0.066-10.078,3.752c-6.56,14.338,3.928,30.861,19.83,30.861c17.26,0,27.61-19.193,18.337-33.589
	c-2.273-3.53-6.98-4.548-10.51-2.276c-3.53,2.274-4.549,6.98-2.276,10.51C466.873,455.97,463.827,461.825,458.559,461.825z"/>
<path d="M130.276,88.658c-2.894-5.194-10.389-5.202-13.287,0C89.898,137.326,0,302.89,0,358.969
	c0,63.249,49.267,121.552,125.713,121.552c67.023,0,121.552-54.528,121.552-121.552c0-52.7-79.181-201.833-113.23-263.516
	C132.657,92.949,131.4,90.676,130.276,88.658z M121.551,465.311c-58.637,0-106.343-47.705-106.343-106.343
	c0-48.792,79.423-198.026,108.423-250.876c28.998,52.843,108.424,202.08,108.424,250.876
	C232.057,414.412,188.963,465.311,121.551,465.311z"/>
<path d="M351.304,3.907c-2.894-5.194-10.387-5.201-13.286,0c-17.714,31.81-75.56,138.461-75.56,175.115
	c0,42.124,32.846,80.865,83.541,80.865c44.59,0,80.865-36.276,80.865-80.865C426.865,142.383,368.981,35.614,351.304,3.907z
	 M344.438,244.666c-36.63,0.634-66.771-29.007-66.771-65.644c0-24.267,33.842-94.863,66.995-155.644
	c33.15,60.777,66.995,131.377,66.995,155.644C411.656,212.49,386.105,243.993,344.438,244.666z"/>
<path d="M466.695,353.042L466.695,353.042c-1.572-2.847-3.119-6.597-8.132-6.6c-0.102,0.028-4.384-0.154-6.645,3.9
	c-11.35,20.346-46.801,85.557-46.801,109.03c0,29.014,23.604,52.619,52.619,52.619c32.72,0,54.264-25.08,54.264-52.619
	C512,438.274,483.615,383.697,466.695,353.042z M457.737,496.783c-20.629,0-37.411-16.783-37.411-37.41
	c0-11.712,14.507-45.562,38.234-89.496c23.725,43.935,38.233,77.786,38.233,89.496C496.792,479.31,481.288,496.783,457.737,496.783z
	"/>
<g>
</g>
<g>
</g>
<g>
</g>
<g>
</g>
<g>
</g>
<g>
</g>
<g>
</g>
<g>
</g>
<g>
</g>
<g>
</g>
<g>
</g>
<g>
</g>
<g>
</g>
<g>
</g>
<g>
</g>
</svg>
